<svg width="35" height="36" viewBox="0 0 35 36" fill="none" xmlns="http://www.w3.org/2000/svg">
<path d="M17.335 1.33331C8.31808 1.33331 1 8.72531 1 17.8333C1 26.9413 8.31808 34.3333 17.335 34.3333C26.3519 34.3333 33.67 26.9413 33.67 17.8333C33.67 8.72531 26.3519 1.33331 17.335 1.33331ZM17.335 6.28331C20.0466 6.28331 22.2355 8.49431 22.2355 11.2333C22.2355 13.9723 20.0466 16.1833 17.335 16.1833C14.6234 16.1833 12.4345 13.9723 12.4345 11.2333C12.4345 8.49431 14.6234 6.28331 17.335 6.28331ZM17.335 29.7133C13.2512 29.7133 9.64121 27.6013 7.534 24.4003C7.583 21.1168 14.068 19.3183 17.335 19.3183C20.5857 19.3183 27.087 21.1168 27.136 24.4003C25.0288 27.6013 21.4187 29.7133 17.335 29.7133Z" stroke="url(#paint0_linear)" stroke-width="2" stroke-linecap="round" stroke-linejoin="round"/>
<defs>
<linearGradient id="paint0_linear" x1="1" y1="22.2488" x2="30.3341" y2="21.9072" gradientUnits="userSpaceOnUse">
<stop stop-color="#7D0853"/>
<stop offset="1" stop-color="#FE3E4A"/>
</linearGradient>
</defs>
</svg>
