<svg width="56" height="64" viewBox="0 0 56 64" fill="none" xmlns="http://www.w3.org/2000/svg">
<path d="M32.0805 51.6964H34.854C34.854 51.6964 37.3445 51.515 37.3445 49.1098L40.9132 39.8728C40.9132 38.7905 37.3742 31.8222 37.4337 30.4392C36.482 30.4993 35.2645 30.3791 33.956 30.4392C32.7069 30.4392 32.1103 30.3791 31.456 30.4392V19.7059C35.5601 19.7059 38.7125 19.4052 40.9132 18.8039C43.1735 18.2026 44.601 17.6013 45.1958 17H49.8352L55.456 35.8256V39C55.456 44 52.1177 46.4137 51.956 50.5C51.8965 52.0033 55.456 51.6964 55.456 51.6964V56.1451V63H32.0805V51.6964Z" fill="#D60739"/>
<circle cx="41.456" cy="8" r="8" fill="#D60739"/>
<path d="M19 0H5V19.608H0V30.684H5.304V48C5.304 53.356 6.656 57.23 9.36 59.622C12.064 61.962 15.834 63.132 20.67 63.132H27.456V51.822H22.698C21.242 51.822 20.202 51.536 19.578 50.964C18.954 50.392 18.642 49.456 18.642 48.156V30.684H27.378V19.608H19V0Z" fill="#742968"/>
</svg>
