<svg width="33" height="35" viewBox="0 0 33 35" fill="none" xmlns="http://www.w3.org/2000/svg">
<path d="M9.25224 8.04714L11.1719 10.4017H1.04808L6.32812 1L7.18263 4.45075C15.1048 -0.138039 25.2259 2.58278 29.7998 10.5308C31.4244 13.354 32.1108 16.4569 31.9856 19.4785L27.8579 18.3688C27.8056 16.4092 27.2603 14.4233 26.2151 12.6072C22.7899 6.65515 15.1849 4.61073 9.25224 8.04714ZM1.01443 16.2932L5.14206 17.4028C5.22267 19.3701 5.73973 21.3483 6.78489 23.1645C10.2101 29.1165 17.8151 31.161 23.7478 27.7246L21.3437 25.37H31.9519L26.2151 34L25.8174 31.3209C17.8952 35.9097 7.77406 33.1889 3.20021 25.2409C1.57556 22.4177 0.88922 19.3148 1.01443 16.2932Z" stroke="url(#paint0_linear)" stroke-width="2" stroke-linecap="round" stroke-linejoin="round"/>
<defs>
<linearGradient id="paint0_linear" x1="1" y1="21.9155" x2="28.835" y2="21.6079" gradientUnits="userSpaceOnUse">
<stop stop-color="#7D0853"/>
<stop offset="1" stop-color="#FE3E4A"/>
</linearGradient>
</defs>
</svg>
