<svg width="36" height="34" viewBox="0 0 36 34" fill="none" xmlns="http://www.w3.org/2000/svg">
<path d="M30 3.99994L30 2.99994L30 2.99994L30 3.99994ZM5.99999 3.99998L5.99999 2.99998L5.99999 2.99998L5.99999 3.99998ZM6 15C5.44772 15 5 15.4477 5 16C5 16.5523 5.44772 17 6 17V15ZM10 17C10.5523 17 11 16.5523 11 16C11 15.4477 10.5523 15 10 15V17ZM6 21C5.44772 21 5 21.4477 5 22C5 22.5523 5.44772 23 6 23V21ZM10 23C10.5523 23 11 22.5523 11 22C11 21.4477 10.5523 21 10 21V23ZM6 27C5.44772 27 5 27.4477 5 28C5 28.5523 5.44772 29 6 29V27ZM10 29C10.5523 29 11 28.5523 11 28C11 27.4477 10.5523 27 10 27V29ZM16 15C15.4477 15 15 15.4477 15 16C15 16.5523 15.4477 17 16 17V15ZM20 17C20.5523 17 21 16.5523 21 16C21 15.4477 20.5523 15 20 15V17ZM16 21C15.4477 21 15 21.4477 15 22C15 22.5523 15.4477 23 16 23V21ZM20 23C20.5523 23 21 22.5523 21 22C21 21.4477 20.5523 21 20 21V23ZM16 27C15.4477 27 15 27.4477 15 28C15 28.5523 15.4477 29 16 29V27ZM20 29C20.5523 29 21 28.5523 21 28C21 27.4477 20.5523 27 20 27V29ZM26 15C25.4477 15 25 15.4477 25 16C25 16.5523 25.4477 17 26 17V15ZM30 17C30.5523 17 31 16.5523 31 16C31 15.4477 30.5523 15 30 15V17ZM26 21C25.4477 21 25 21.4477 25 22C25 22.5523 25.4477 23 26 23V21ZM30 23C30.5523 23 31 22.5523 31 22C31 21.4477 30.5523 21 30 21V23ZM26 27C25.4477 27 25 27.4477 25 28C25 28.5523 25.4477 29 26 29V27ZM30 29C30.5523 29 31 28.5523 31 28C31 27.4477 30.5523 27 30 27V29ZM30 31.9999H6V33.9999H30V31.9999ZM34 8.99994V10.9999H36V8.99994H34ZM34 10.9999V27.9999H36V10.9999H34ZM2 27.9999V10.9999H0V27.9999H2ZM2 10.9999V8.99998H0V10.9999H2ZM35 9.99993H1V11.9999H35V9.99993ZM6 31.9999C3.79086 31.9999 2 30.2091 2 27.9999H0C0 31.3136 2.68629 33.9999 6 33.9999V31.9999ZM30 33.9999C33.3137 33.9999 36 31.3136 36 27.9999H34C34 30.2091 32.2091 31.9999 30 31.9999V33.9999ZM30 4.99994C32.2091 4.99993 34 6.7908 34 8.99994H36C36 5.68623 33.3137 2.99993 30 2.99994L30 4.99994ZM6 17H10V15H6V17ZM6 23H10V21H6V23ZM6 29H10V27H6V29ZM16 17H20V15H16V17ZM16 23H20V21H16V23ZM16 29H20V27H16V29ZM26 17H30V15H26V17ZM26 23H30V21H26V23ZM26 29H30V27H26V29ZM5.99999 2.99998C2.68629 2.99999 0 5.68628 0 8.99998H2C2 6.79084 3.79086 4.99999 5.99999 4.99998L5.99999 2.99998ZM5.99999 4.99998L11 5L11 3L5.99999 2.99998L5.99999 4.99998ZM30 2.99994L25 3L25 5L30 4.99994L30 2.99994ZM26 4C26 2.84586 25.7108 1.79657 24.9571 1.04289C24.2034 0.289213 23.1541 0 22 0V2C22.8459 2 23.2966 2.21079 23.5429 2.45711C23.7892 2.70343 24 3.15414 24 4H26ZM12 4C12 3.15414 12.2108 2.70343 12.4571 2.45711C12.7034 2.21079 13.1541 2 14 2V0C12.8459 0 11.7966 0.289213 11.0429 1.04289C10.2892 1.79657 10 2.84586 10 4H12ZM14 2H22V0H14V2ZM10 4C10 5.15414 10.2892 6.20343 11.0429 6.95711C11.7966 7.71079 12.8459 8 14 8V6C13.1541 6 12.7034 5.78921 12.4571 5.54289C12.2108 5.29657 12 4.84586 12 4H10ZM24 4C24 4.59802 23.8137 5.09331 23.5101 5.42733C23.2203 5.74602 22.7507 6 22 6V8C23.2493 8 24.2797 7.55398 24.9899 6.77267C25.6863 6.00669 26 5.00198 26 4H24ZM22 6H14V8H22V6Z" fill="url(#paint0_linear)"/>
<defs>
<linearGradient id="paint0_linear" x1="1" y1="21.2816" x2="31.5276" y2="20.9001" gradientUnits="userSpaceOnUse">
<stop stop-color="#7D0853"/>
<stop offset="1" stop-color="#FE3E4A"/>
</linearGradient>
</defs>
</svg>
