<svg width="38" height="35" viewBox="0 0 38 35" fill="none" xmlns="http://www.w3.org/2000/svg">
<path d="M1 7.94739C1 7.94739 1 27.4869 1 29.6579C1 31.8289 3.19556 34 5.39113 34C7.58669 34 29.5423 34 31.7379 34C33.9335 34 36.129 31.8289 36.129 29.6579C36.129 27.4869 36.129 14.8947 36.129 12.2895C36.129 9.68426 33.9335 7.94739 31.7379 7.94739C29.5423 7.94739 27.7859 7.94739 27.7859 7.94739M1 7.94739C1 7.94739 1 8.38163 1 5.34213C1 2.30263 2.75645 1.00003 5.39113 1.00003C8.02581 1.00003 21.1992 1.00005 23.8339 1.00003C26.4685 1 27.7859 2.73684 27.7859 5.3421C27.7859 7.94736 27.7859 7.94739 27.7859 7.94739M1 7.94739H27.7859" stroke="url(#paint0_linear)" stroke-width="2"/>
<path d="M30.7379 20.9737C30.7379 22.3293 29.6235 23.4473 28.225 23.4473C26.8265 23.4473 25.7121 22.3293 25.7121 20.9737C25.7121 19.618 26.8265 18.5 28.225 18.5C29.6235 18.5 30.7379 19.618 30.7379 20.9737Z" stroke="url(#paint1_linear)" stroke-width="2"/>
<defs>
<linearGradient id="paint0_linear" x1="1" y1="21.9155" x2="32.5413" y2="21.5205" gradientUnits="userSpaceOnUse">
<stop stop-color="#7D0853"/>
<stop offset="1" stop-color="#FE3E4A"/>
</linearGradient>
<linearGradient id="paint1_linear" x1="24.7121" y1="21.9032" x2="31.0205" y2="21.8282" gradientUnits="userSpaceOnUse">
<stop stop-color="#7D0853"/>
<stop offset="1" stop-color="#FE3E4A"/>
</linearGradient>
</defs>
</svg>
