<svg width="76" height="76" viewBox="0 0 76 76" fill="none" xmlns="http://www.w3.org/2000/svg">
<path d="M0 8.44444V67.5556C0 72.2 3.75778 76 8.44444 76H67.5556C72.2 76 76 72.2 76 67.5556V8.44444C76 3.8 72.2 0 67.5556 0H8.44444C3.75778 0 0 3.8 0 8.44444ZM50.6667 25.3333C50.6667 32.3422 45.0089 38 38 38C30.9911 38 25.3333 32.3422 25.3333 25.3333C25.3333 18.3244 30.9911 12.6667 38 12.6667C45.0089 12.6667 50.6667 18.3244 50.6667 25.3333ZM12.6667 59.1111C12.6667 50.6667 29.5556 46.0222 38 46.0222C46.4444 46.0222 63.3333 50.6667 63.3333 59.1111V63.3333H12.6667V59.1111Z" fill="white"/>
</svg>
